<svg xmlns="http://www.w3.org/2000/svg" width="167.348" height="167.357" viewBox="0 0 44.277493 44.279873"><path d="M39.287 44.28H4.99A4.99 4.99 0 0 1 0 39.289V4.99A4.991 4.991 0 0 1 4.99 0h34.297a4.991 4.991 0 0 1 4.99 4.991V39.29a4.99 4.99 0 0 1-4.99 4.991"/><path fill="#FFF" d="M36.411 6.568C35.086 5.013 33.557 4.139 33 4.618c-.375.317-.213 1.159.326 2.146l-2.018 1.72c.443.342.904.773 1.343 1.292a9.042 9.042 0 0 1 1.064 1.529l2.017-1.72c.889.688 1.696.98 2.07.66.557-.477-.063-2.123-1.39-3.677M31.768 10.53c-1.889-2.215-4.065-3.459-4.862-2.78-.451.384-.35 1.305.15 2.426l-10.918 9.313a.396.396 0 0 0-.122.425c.123.38.281.743.456 1.096l-2.803 2.388a.399.399 0 0 0-.118.426c.14.43.36.823.622 1.189l-4.074 3.473a.396.396 0 0 0 .225.7.41.41 0 0 0 .29-.094l4.073-3.475c.32.315.674.596 1.076.802l.149.042a.406.406 0 0 0 .29-.094l2.802-2.39c.32.228.653.44 1.01.622l.15.045a.401.401 0 0 0 .287-.096l10.92-9.312c1.029.669 1.922.915 2.372.531.797-.678-.087-3.026-1.975-5.238m-11.58 12.378a8.939 8.939 0 0 1-2.47-2.9l3.232-2.758 2.472 2.9zm4.542-5.796a.409.409 0 0 1-.293.093.393.393 0 0 1-.27-.138l-1.177-1.378a.397.397 0 0 1 .605-.517l1.177 1.381a.398.398 0 0 1-.042.56m1.746-1.492a.394.394 0 0 1-.29.092.387.387 0 0 1-.27-.138l-1.176-1.379a.395.395 0 0 1 .045-.56.399.399 0 0 1 .56.044l1.175 1.38a.396.396 0 0 1-.044.56m1.749-1.492a.398.398 0 0 1-.56-.044l-1.177-1.38a.398.398 0 0 1 .604-.516l1.177 1.381a.395.395 0 0 1-.044.559M10.115 33.701c.008-1.575-1.946-3.577-1.946-3.577s-1.975 1.983-1.985 3.556a1.965 1.965 0 0 0 3.931.021M18.315 37.59c-.158.147-.383.22-.67.22-.285 0-.51-.078-.67-.236a.714.714 0 0 1-.213-.521c0-.204.075-.376.228-.522.153-.146.368-.217.656-.217.291 0 .522.077.686.232.148.136.22.303.22.507 0 .21-.08.392-.237.537m.63.51c.286-.284.429-.636.429-1.047 0-.41-.147-.759-.437-1.041-.316-.308-.753-.465-1.297-.465-.54 0-.973.156-1.292.465-.286.278-.429.629-.429 1.041 0 .407.145.758.435 1.046.319.314.752.473 1.286.473.549 0 .986-.16 1.305-.473M21.095 35.175h-.838v3.66h.838v-.385h.818v-.74h-.818v-.78h.818v-.741h-.818zM16.512 39.647h3.745v1.393h.838v-2.114h-4.583zM23.765 36.117h2.947v.605h-2.947zm3.774-.638h-4.597v1.876h4.597zM22.159 38.24h2.702v.247h-1.919v.633h3.77v.24h-3.77v1.51h4.74v-.638h-3.916v-.24h3.773v-1.505h-1.863v-.247h2.682v-.646h-6.2z"/></svg>