<svg xmlns="http://www.w3.org/2000/svg" width="167.348" height="167.357" viewBox="0 0 44.277493 44.279873"><path d="M39.287 44.28H4.991A4.991 4.991 0 0 1 0 39.289V4.994A4.993 4.993 0 0 1 4.99 0h34.297a4.99 4.99 0 0 1 4.99 4.994V39.29a4.989 4.989 0 0 1-4.99 4.991"/><path fill="#FFF" d="M36.31 15.494c0-6.332-6.345-11.465-14.17-11.465-7.828 0-14.17 5.133-14.17 11.465 0 3.044 1.475 5.8 3.863 7.854l-.01.002s.03.02.07.05c.138.116.277.231.42.344.91.813 2.77 2.91 2.77 6.453 0 .002-.327 2.222 7.056 2.222 7.387 0 7.057-2.222 7.057-2.222h-.002c.002-3.539 1.858-5.635 2.768-6.45.145-.115.285-.23.424-.349l.067-.048-.008-.002c2.389-2.053 3.864-4.81 3.864-7.853M22.585 19.41c.503.773 1.267 2.17 1.422 3.7.028.292-.214.544-.527.544h-2.683c-.314 0-.556-.252-.526-.544.155-1.53.92-2.927 1.42-3.7a.54.54 0 0 1 .894 0m-9.284-3.915c0-2.582 1.586-4.677 3.54-4.677 1.955 0 3.54 2.095 3.54 4.677 0 2.583-1.585 4.677-3.54 4.677-1.954 0-3.54-2.094-3.54-4.677m12.745 12.854h-7.813a.695.695 0 0 1 0-1.39h7.813a.695.695 0 0 1 0 1.39m1.39-8.177c-1.953 0-3.54-2.094-3.54-4.677 0-2.582 1.587-4.677 3.54-4.677 1.957 0 3.541 2.095 3.541 4.677 0 2.583-1.584 4.677-3.542 4.677M20.969 37.428c.091-.198.167-.486.231-.878.062-.39.094-.777.094-1.158v-.066H16.59v.695h3.858a5.504 5.504 0 0 1-.312 1.324l-.032.084.456.022h-1.433v-1.116h-.836v1.116h-2.464v.706h6.2v-.706H20.96zM20.232 39.964c-.226.085-.652.13-1.267.13-.612 0-1.04-.043-1.268-.127-.21-.078-.312-.193-.312-.349 0-.156.09-.266.279-.337.24-.09.678-.136 1.301-.136.611 0 1.044.046 1.287.136.195.07.289.181.289.337 0 .152-.1.265-.31.346m.558-1.241c-.37-.19-.984-.286-1.824-.286-.847 0-1.458.093-1.816.274-.371.192-.559.496-.559.907 0 .413.188.719.56.907.367.186.959.276 1.815.276.842 0 1.45-.093 1.808-.276.373-.187.562-.493.562-.907 0-.412-.184-.713-.546-.895M24.688 37.815l-.09-1.565h1.46l-.056 1.565zm1.152 1.73v-1.022h2.146v-.708h-1.161l.077-1.565h.703v-.727h-4.554v.727h.708l.084 1.565H22.67v.708h2.341v1.023h-2.752v.727h6.193v-.727z"/></svg>