<svg xmlns="http://www.w3.org/2000/svg" width="167.353" height="167.353" viewBox="0 0 44.278813 44.278815"><path d="M39.287 44.279H4.992A4.991 4.991 0 0 1 0 39.286V4.993A4.994 4.994 0 0 1 4.992 0h34.295a4.992 4.992 0 0 1 4.992 4.993v34.293a4.99 4.99 0 0 1-4.992 4.993"/><path fill="#FFF" d="M27.721 26.988v-9.476c0-.322.224-.592.532-.644a.637.637 0 0 1 .745.628v9.422l.09.161c.339.22.998.484 2.226.484 2.267 0 2.952-1.742 3.02-2.905v-8c-.045-.639-.233-1.892-1.009-2.692-.477-.493-1.122-.74-1.912-.74h-.028c-.015 0-1.591-.095-2.364.98-.081.112-.205.165-.355.17a.418.418 0 0 1-.333-.21c-.046-.08-1.107-1.922-3.316-1.922-2.2 0-3.095 1.996-3.105 2.015a.397.397 0 0 1-.336.243.416.416 0 0 1-.377-.176c-.02-.03-.63-.848-2.335-.652-1.745.21-2.592 1.88-2.6 1.896a.409.409 0 0 1-.24.206.397.397 0 0 1-.313-.022s-.383-.17-1.29-.17c-.885 0-2.576.897-2.576 2.308v6.965c.004.086.153 2.575 2.51 2.575.044.002.896.067 1.659-.37l.1-.166v-7.454c0-.316.226-.592.531-.64.181-.035.37.02.514.14.147.123.23.3.23.489v7.506l.05.132c.397.39 1.11.855 2.262.855.982 0 1.573-.319 1.895-.588l.059-.138v-9.032c0-.321.224-.59.53-.642l.108-.01a.642.642 0 0 1 .639.639v8.907l.062.142c.348.33 1.019.722 2.23.722 1.214 0 1.995-.432 2.436-.795z"/><path fill="#FFF" d="M37.516 23.677c-.173-.556-1.12-2.54-1.94-4.22v5.006c0 .098-.007.193-.014.29.03 1.222-.566 3.486-3.087 3.982-2.17.428-3.465-.163-4.006-.51-.442.315-1.42.852-3.066.967.188.637.823 1.803 2.968 1.803h4.747c.649 0 2.228-.6 3.561-2.87 1.3-2.217 1.1-3.6.837-4.448M14.42 14.355c.461 0 .826.037 1.106.085.503-.696 1.539-1.786 3.193-1.983 1.14-.138 2.013.097 2.614.427.614-.807 1.783-1.869 3.683-1.869.584 0 1.102.105 1.565.26l1.602-2.136-5.096.611.612-5.095L19.59 7.73l-2.019-4.719-2.018 4.72-4.108-3.077.611 5.095L6.96 9.14l3.08 4.107-4.722 2.018 4.722 2.02-3.08 4.106 3.66-.437V17.89c0-2.123 2.288-3.535 3.8-3.535"/><path d="M15.53 16.12h-.004z"/><path fill="#FFF" d="M14.025 39.769h3.74v1.305h.83v-1.999h-4.57zM15.594 37.048l-.097-.835h1.6l-.042.835zm1.18 1.054v-.348h1.89v-.706h-.808l.035-.835h.83v-.707h-4.816v.707h.798l.09.835h-.803v.706h1.961v.348h-2.716v.705h6.192v-.705zM23.145 38.748l.063-.01-.07-.71-.074.014a16.615 16.615 0 0 1-2.38.209v-.815h2.094v-1.903h-2.904v.74h2.095v.442h-2.102v2.297h.069c.37 0 .925-.033 1.647-.096.703-.06 1.244-.118 1.562-.168M20.383 39.897h3.852v1.306h.836v-2.052h-4.688z"/><path fill="#FFF" d="M24.235 35.979H22.92v.733h1.315v.524H22.92v.742h1.315v1.04h.836v-3.81h-.836zM27.348 39.577c.225-.074.663-.112 1.303-.112.628 0 1.06.038 1.289.112.207.067.309.163.309.295 0 .133-.1.23-.308.294-.226.076-.66.113-1.29.113-.629 0-1.065-.037-1.298-.113-.208-.065-.312-.162-.312-.294 0-.132.1-.229.307-.295m3.126-.562c-.364-.172-.96-.257-1.823-.257-.88 0-1.484.082-1.842.254-.373.175-.562.464-.562.86 0 .39.19.679.568.857.362.171.98.258 1.836.258.853 0 1.467-.086 1.828-.255.375-.177.565-.466.565-.86 0-.391-.192-.68-.57-.857"/><path fill="#FFF" d="M30.17 38.904h.839v-3.73h-.839v1.34h-1.651v.74h1.651zM27.215 37.342a4.05 4.05 0 0 0 1.046 1.33l.042.032.687-.448-.066-.057c-.247-.21-.443-.4-.586-.566a3.047 3.047 0 0 1-.504-.782 2.637 2.637 0 0 1-.214-1.057c0-.027.005-.061.014-.102a.569.569 0 0 0 .014-.093.15.15 0 0 0-.1-.146.718.718 0 0 0-.244-.028h-.484v.066c0 .454-.075.89-.223 1.295-.12.326-.291.645-.513.952-.155.21-.353.433-.585.66l-.063.062.694.372.039-.035c.216-.208.412-.43.585-.665.192-.259.347-.525.46-.79"/></svg>